<?xml version="1.0" encoding="UTF-8"?>
<svg version="1.1" xmlns="http://www.w3.org/2000/svg" width="261" height="109">
<path d="M0 0 C2.57498733 2.48246206 4.34999306 4.98184021 6.1875 8.0625 C6.71730469 8.94035156 7.24710938 9.81820312 7.79296875 10.72265625 C9 13 9 13 9 15 C10.65 14.67 12.3 14.34 14 14 C13.59007812 14.51304688 13.18015625 15.02609375 12.7578125 15.5546875 C11.6381477 18.20499508 11.6381477 18.20499508 13.5546875 21.3828125 C14.31216703 22.63996273 15.08635665 23.88716173 15.875 25.125 C20 31.80940594 20 31.80940594 20 34 C16.7 34 13.4 34 10 34 C9.16151196 32.54462432 8.32936066 31.08559627 7.5 29.625 C7.0359375 28.81289063 6.571875 28.00078125 6.09375 27.1640625 C5 25 5 25 5 23 C2.5244152 25.4755848 2.07771836 27.69948753 1 31 C0.01 32.485 0.01 32.485 -1 34 C-2.87939453 34.34057617 -2.87939453 34.34057617 -5.1328125 34.29296875 C-5.93847656 34.28330078 -6.74414062 34.27363281 -7.57421875 34.26367188 C-8.41597656 34.23853516 -9.25773437 34.21339844 -10.125 34.1875 C-11.39923828 34.16719727 -11.39923828 34.16719727 -12.69921875 34.14648438 C-14.79974837 34.11108219 -16.89995293 34.05727401 -19 34 C-13.54082258 22.18424614 -6.6909535 11.14464731 0 0 Z M0 17 C-0.66 18.65 -1.32 20.3 -2 22 C-0.68 21.67 0.64 21.34 2 21 C1.34 19.68 0.68 18.36 0 17 Z " fill="#FFFFFF" transform="translate(27,27)"/>
<path d="M0 0 C3.125 -0.5 3.125 -0.5 7 0 C9.42952606 2.40317545 11.2262164 5.08917564 13 8 C13.27972656 7.4225 13.55945313 6.845 13.84765625 6.25 C15.09120051 3.94684407 16.26190188 1.96181372 18 0 C21.8125 -0.5 21.8125 -0.5 25 0 C25 4.66704674 22.04607563 7.56556416 19.43359375 11.30859375 C17.827891 13.7852114 17.827891 13.7852114 18.0625 15.9921875 C19.33879889 18.72559429 20.8994868 21.17114266 22.5625 23.6875 C26 28.90945674 26 28.90945674 26 30 C20.80310881 30.61658031 20.80310881 30.61658031 18 30 C15.82403854 27.93774674 14.39957179 25.63765454 13 23 C10.22999175 26.32086771 10.22999175 26.32086771 8 30 C5.36 30 2.72 30 0 30 C1.42540678 25.8533621 3.54297956 22.59910462 6.07421875 19.0625 C7.33165382 16.26112567 6.95195194 14.8914428 6 12 C4.61762381 9.61638895 4.61762381 9.61638895 2.9375 7.375 C0 3.32470588 0 3.32470588 0 0 Z " fill="#FFFFFF" transform="translate(96,31)"/>
<path d="M0 0 C15.17857143 0 15.17857143 0 20 3 C22.45560722 6.09620041 22.32086681 9.14959831 22 13 C21.13310995 15.60067015 20.55425367 16.65723786 18.21875 18.1015625 C14.4967051 19.60872857 10.9810863 19.11709077 7 19 C7 22.63 7 26.26 7 30 C4.69 30 2.38 30 0 30 C0 20.1 0 10.2 0 0 Z M7 6 C7 8.31 7 10.62 7 13 C9.31 13 11.62 13 14 13 C14.67958603 10.60280568 14.67958603 10.60280568 15 8 C13.10244856 5.65026182 13.10244856 5.65026182 9.875 5.875 C8.92625 5.91625 7.9775 5.9575 7 6 Z " fill="#FFFFFF" transform="translate(50,31)"/>
<path d="M0 0 C5.94 0 11.88 0 18 0 C18 1.98 18 3.96 18 6 C14.37 6 10.74 6 7 6 C7 7.98 7 9.96 7 12 C9.97 12 12.94 12 16 12 C16 13.98 16 15.96 16 18 C13.03 18 10.06 18 7 18 C7 20.31 7 22.62 7 25 C10.63 25 14.26 25 18 25 C18 26.65 18 28.3 18 30 C12.06 30 6.12 30 0 30 C0 20.1 0 10.2 0 0 Z " fill="#FFFFFF" transform="translate(75,31)"/>
<path d="M0 0 C3.24301412 2.21114599 4.83017064 4.47837883 6.75 7.875 C6.75 8.205 6.75 8.535 6.75 8.875 C4.5625 9.1875 4.5625 9.1875 1.75 8.875 C0.986875 8.05 0.22375 7.225 -0.5625 6.375 C-3.29922346 3.82921074 -3.76180551 3.44633365 -7.25 3.25 C-10.69290475 3.45826645 -11.31832148 3.93023865 -14.1875 6.25 C-16.86291619 9.65507515 -17.43486174 11.02053267 -17.0625 15.25 C-16.66169666 18.53025893 -16.39069271 19.69346102 -14.3125 22.375 C-10.20940919 25.35906604 -6.96097028 25.10091419 -2 24.6875 C0.00759109 23.97625578 0.00759109 23.97625578 0.9375 21.5 C1.205625 20.63375 1.47375 19.7675 1.75 18.875 C2.08 17.885 2.41 16.895 2.75 15.875 C-1.21 15.875 -5.17 15.875 -9.25 15.875 C-9.25 14.885 -9.25 13.895 -9.25 12.875 C-3.64 12.875 1.97 12.875 7.75 12.875 C6.62284861 21.8922111 6.62284861 21.8922111 3.8125 24.8125 C3.28785156 25.37839844 2.76320312 25.94429687 2.22265625 26.52734375 C-1.39180251 29.83500495 -5.60293057 29.20423137 -10.26171875 29.1484375 C-14.32690962 28.77645925 -16.36563169 27.75936831 -19.25 24.875 C-21.94959367 20.10571786 -22.83346124 16.32063825 -22.25 10.875 C-20.5848271 5.70419995 -18.82079843 2.84601898 -14.25 -0.125 C-9.23972375 -1.79509208 -4.91956683 -1.70292698 0 0 Z " fill="#FFFFFF" transform="translate(196.25,32.125)"/>
<path d="M0 0 C4.64425866 2.49413891 8.31375022 4.94125067 10 10 C10.50976619 15.3232961 10.67052598 19.65894804 8.25 24.5 C3.48787783 29.79124685 3.48787783 29.79124685 -0.83984375 30.3984375 C-2.37318359 30.38683594 -2.37318359 30.38683594 -3.9375 30.375 C-4.95714844 30.38273437 -5.97679687 30.39046875 -7.02734375 30.3984375 C-11.60797309 29.78447667 -14.17766375 27.86678685 -17.3125 24.5625 C-19.78617702 19.34029296 -20.12616861 14.66788806 -19 9 C-14.45372606 1.20120561 -8.78391019 -1.1111271 0 0 Z M-13 7 C-15.53378597 11.19323735 -15.83565364 15.21774451 -15 20 C-13.28631391 23.07061968 -11.19098548 25.40450726 -8 27 C-4.74909308 27.37510464 -2.15611549 27.66540869 0.7578125 25.98828125 C3.45308356 23.82034584 4.89684396 22.30946812 6 19 C6.34222737 13.69547577 6.52076609 10.27521597 3 6 C-2.02146211 2.23390341 -8.31973236 3.25578589 -13 7 Z " fill="#FFFFFF" transform="translate(161,31)"/>
<path d="M0 0 C2.60278932 1.73519288 4.09741488 3.03429312 5.625 5.75 C5.625 6.74 5.625 7.73 5.625 8.75 C2.39988581 8.39165398 1.00053156 8.17732901 -1.1875 5.6875 C-4.03407192 3.16625059 -5.78689796 3.28644412 -9.4765625 3.4921875 C-12.77578064 3.94022947 -14.58907137 4.72829279 -16.625 7.375 C-18.10790873 12.07087765 -18.05961593 16.17538336 -16.125 20.625 C-13.44809543 23.87552698 -11.56933033 24.57212101 -7.4375 25.1875 C-3.3684951 24.60621359 -2.1861526 22.63323343 0.625 19.75 C3.4375 19.4375 3.4375 19.4375 5.625 19.75 C5.39408069 22.86741071 4.35645633 24.06934922 2.3125 26.5 C-1.61124597 29.56869237 -5.71421568 29.38658703 -10.52734375 29.171875 C-15.46174552 28.44085252 -17.99094036 26.27246561 -21.25 22.6875 C-23.01898396 18.06848633 -23.03392625 13.62748673 -22.375 8.75 C-20.5625 5.25 -20.5625 5.25 -18.375 2.75 C-17.859375 2.151875 -17.34375 1.55375 -16.8125 0.9375 C-12.26335558 -2.82048887 -5.13083724 -1.90031009 0 0 Z " fill="#FFFFFF" transform="translate(238.375,32.25)"/>
<path d="M0 0 C1.65 0 3.3 0 5 0 C5 0.66 5 1.32 5 2 C10.61 2 16.22 2 22 2 C22.33 1.34 22.66 0.68 23 0 C24.65 0 26.3 0 28 0 C28 0.66 28 1.32 28 2 C29.98 2 31.96 2 34 2 C34 3.98 34 5.96 34 8 C30.25 9.125 30.25 9.125 28 8 C24.62177584 7.85624578 22.22609045 7.92463652 19 9 C18.01 8.67 17.02 8.34 16 8 C15.40703125 8.15339844 14.8140625 8.30679688 14.203125 8.46484375 C11.26973883 9.17738613 8.74627164 8.85561353 5.75 8.5625 C4.67234375 8.46066406 3.5946875 8.35882813 2.484375 8.25390625 C1.66453125 8.17011719 0.8446875 8.08632812 0 8 C0 5.36 0 2.72 0 0 Z M4 3 C4 3.66 4 4.32 4 5 C3.01 5 2.02 5 1 5 C1 5.66 1 6.32 1 7 C2.65 6.67 4.3 6.34 6 6 C5.67 5.01 5.34 4.02 5 3 C4.67 3 4.34 3 4 3 Z M9 3 C10 6 10 6 10 6 Z M12 4 C12 4.66 12 5.32 12 6 C13.32 5.34 14.64 4.68 16 4 C14.68 4 13.36 4 12 4 Z " fill="#FFFFFF" transform="translate(66,68)"/>
<path d="M0 0 C1.98 0.495 1.98 0.495 4 1 C4 9.58 4 18.16 4 27 C7.3 27 10.6 27 14 27 C14 27.99 14 28.98 14 30 C9.05 30 4.1 30 -1 30 C-1.02291394 25.88822073 -1.04283951 21.77660342 -1.05493164 17.66479492 C-1.0599708 16.26504772 -1.06680216 14.8653058 -1.07543945 13.46557617 C-1.0875232 11.45754223 -1.09269807 9.44947043 -1.09765625 7.44140625 C-1.10289307 6.23170166 -1.10812988 5.02199707 -1.11352539 3.77563477 C-1 1 -1 1 0 0 Z " fill="#FFFFFF" transform="translate(126,31)"/>
<path d="M0 0 C2.375 -0.1875 2.375 -0.1875 5 0 C5.66 0.99 6.32 1.98 7 3 C7.33 2.67 7.66 2.34 8 2 C10.53049402 1.92686433 13.03304837 1.90752473 15.5625 1.9375 C16.27341797 1.94201172 16.98433594 1.94652344 17.71679688 1.95117188 C19.47790013 1.96299136 21.23896036 1.98092737 23 2 C23 2.66 23 3.32 23 4 C23.66 4 24.32 4 25 4 C25 3.34 25 2.68 25 2 C25.66 2 26.32 2 27 2 C26.01 4.97 25.02 7.94 24 11 C23.34 11 22.68 11 22 11 C21.87625 10.030625 21.7525 9.06125 21.625 8.0625 C21.41875 7.051875 21.2125 6.04125 21 5 C20.34 4.67 19.68 4.34 19 4 C19 5.32 19 6.64 19 8 C13.25 9.125 13.25 9.125 11 8 C11 7.34 11 6.68 11 6 C10.34 6 9.68 6 9 6 C9 6.66 9 7.32 9 8 C8.01 8 7.02 8 6 8 C5.34 7.01 4.68 6.02 4 5 C3.01 5 2.02 5 1 5 C1 5.66 1 6.32 1 7 C2.98 7.495 2.98 7.495 5 8 C3.35 8 1.7 8 0 8 C0 5.36 0 2.72 0 0 Z " fill="#FFFFFF" transform="translate(136,68)"/>
<path d="M0 0 C1.32 0.33 2.64 0.66 4 1 C4 10.57 4 20.14 4 30 C2.68 30 1.36 30 0 30 C0 20.1 0 10.2 0 0 Z " fill="#FFFFFF" transform="translate(208,31)"/>
<path d="M0 0 C5.94 0 11.88 0 18 0 C18.33 1.65 18.66 3.3 19 5 C17.1875 6.0625 17.1875 6.0625 15 7 C14.01 6.67 13.02 6.34 12 6 C11.01 6.33 10.02 6.66 9 7 C6.3125 6.5625 6.3125 6.5625 4 6 C4 4.68 4 3.36 4 2 C3.34 2 2.68 2 2 2 C2 3.32 2 4.64 2 6 C1.34 6 0.68 6 0 6 C0 4.02 0 2.04 0 0 Z M9 1 C9 2.32 9 3.64 9 5 C9.99 4.01 10.98 3.02 12 2 C11.01 1.67 10.02 1.34 9 1 Z " fill="#FFFFFF" transform="translate(101,70)"/>
<path d="M0 0 C3.10374171 -0.25864514 4.52765486 -0.35783722 7.0625 1.5625 C8.90578683 3.28090211 8.90578683 3.28090211 11.25 2.6875 C12.11625 2.3471875 12.11625 2.3471875 13 2 C13 1.34 13 0.68 13 0 C13.66 0 14.32 0 15 0 C15.33 2.31 15.66 4.62 16 7 C15.01 7.33 14.02 7.66 13 8 C12.67 7.01 12.34 6.02 12 5 C11.01 6.98 10.02 8.96 9 11 C8.34 11 7.68 11 7 11 C7 9.68 7 8.36 7 7 C6.67 7.33 6.34 7.66 6 8 C4.00041636 8.04080783 1.99954746 8.04254356 0 8 C0 5.36 0 2.72 0 0 Z M2 5 C2.33 5.66 2.66 6.32 3 7 C3.33 6.34 3.66 5.68 4 5 C3.34 5 2.68 5 2 5 Z " fill="#FFFFFF" transform="translate(166,68)"/>
<path d="M0 0 C1.65 0 3.3 0 5 0 C5 1.98 5 3.96 5 6 C3.125 6.625 3.125 6.625 1 7 C0.34 6.34 -0.32 5.68 -1 5 C-0.625 2.375 -0.625 2.375 0 0 Z " fill="#FFFFFF" transform="translate(183,70)"/>
<path d="M0 0 C2.64 0 5.28 0 8 0 C8.33 1.32 8.66 2.64 9 4 C6.36 4 3.72 4 1 4 C0.67 2.68 0.34 1.36 0 0 Z " fill="#FFFFFF" transform="translate(241,28)"/>
<path d="M0 0 C1.98 0 3.96 0 6 0 C6 1.98 6 3.96 6 6 C5.34 6 4.68 6 4 6 C4 4.68 4 3.36 4 2 C3.34 2 2.68 2 2 2 C2 3.32 2 4.64 2 6 C1.34 6 0.68 6 0 6 C0 4.02 0 2.04 0 0 Z " fill="#FFFFFF" transform="translate(126,70)"/>
<path d="M0 0 C0.66 0 1.32 0 2 0 C2 2.97 2 5.94 2 9 C1.34 9 0.68 9 0 9 C0 6.03 0 3.06 0 0 Z " fill="#FFFFFF" transform="translate(123,67)"/>
</svg>
